<svg xmlns="http://www.w3.org/2000/svg" width="2560" height="1440" viewBox="0 0 2560 1440">
  <defs>
    <filter id="blue-glow" x="-30%" y="-30%" width="160%" height="160%">
      <feGaussianBlur stdDeviation="11" result="blur"/>
      <feMerge><feMergeNode in="blur"/><feMergeNode in="SourceGraphic"/></feMerge>
    </filter>
    <filter id="yellow-glow" x="-30%" y="-30%" width="160%" height="160%">
      <feGaussianBlur stdDeviation="9" result="blur"/>
      <feMerge><feMergeNode in="blur"/><feMergeNode in="SourceGraphic"/></feMerge>
    </filter>
  </defs>

  <rect width="2560" height="1440" fill="#0D1011"/>
  <path d="M180 314 H2380" fill="none" stroke="#F2F3EE" stroke-width="8" stroke-linecap="round"/>
  <path d="M530 314 V390 M1280 314 V420 M2030 314 V390" fill="none" stroke="#F2F3EE" stroke-width="6"/>
  <circle cx="530" cy="390" r="8" fill="#F2F3EE"/>
  <circle cx="1280" cy="420" r="8" fill="#F2F3EE"/>
  <circle cx="2030" cy="390" r="8" fill="#F2F3EE"/>

  <g transform="rotate(-2 530 560)">
    <rect x="300" y="410" width="460" height="300" rx="13" fill="#15191A" stroke="#168DE2" stroke-width="8" filter="url(#blue-glow)"/>
    <text x="530" y="500" fill="#168DE2" font-family="monospace" font-size="30" font-weight="700" letter-spacing="12" text-anchor="middle">SYSTEM</text>
    <circle cx="530" cy="588" r="48" fill="none" stroke="#F2F3EE" stroke-width="8"/>
    <path d="M530 540 V588 L566 610" fill="none" stroke="#F2F3EE" stroke-width="8" stroke-linecap="round"/>
  </g>

  <g transform="rotate(1.5 1280 570)">
    <rect x="980" y="440" width="600" height="300" rx="13" fill="#15191A" stroke="#F23838" stroke-width="8"/>
    <text x="1280" y="535" fill="#F23838" font-family="monospace" font-size="30" font-weight="700" letter-spacing="12" text-anchor="middle">MOTION</text>
    <path d="M1120 640 H1440 M1375 590 L1440 640 L1375 690" fill="none" stroke="#F2F3EE" stroke-width="10" stroke-linecap="round" stroke-linejoin="round"/>
  </g>

  <g transform="rotate(-3 2030 560)">
    <rect x="1800" y="410" width="460" height="300" rx="13" fill="#15191A" stroke="#FFEA00" stroke-width="8" filter="url(#yellow-glow)"/>
    <text x="2030" y="500" fill="#FFEA00" font-family="monospace" font-size="30" font-weight="700" letter-spacing="12" text-anchor="middle">SIGNAL</text>
    <path d="M1940 645 L2030 545 L2120 645 Z" fill="none" stroke="#F23838" stroke-width="10" stroke-linejoin="round"/>
    <circle cx="2030" cy="625" r="7" fill="#F23838"/>
  </g>

  <text x="280" y="970" fill="#A8ADAA" font-family="monospace" font-size="28" font-weight="700" letter-spacing="10">OUTPUT</text>
  <rect x="280" y="1010" width="2000" height="124" rx="62" fill="none" stroke="#343A3D" stroke-width="7"/>
  <path d="M342 1010 H1575 A62 62 0 0 1 1575 1134 H342 A62 62 0 0 1 342 1010 Z" fill="#168DE2"/>
  <g transform="rotate(-5 1575 1072)">
    <rect x="1475" y="1017" width="200" height="110" fill="#F23838" stroke="#0D1011" stroke-width="7"/>
    <text x="1575" y="1090" fill="#0D1011" font-family="monospace" font-size="38" font-weight="900" letter-spacing="5" text-anchor="middle">READY</text>
  </g>

  <text x="2280" y="1350" fill="#676D70" font-family="monospace" font-size="20" font-weight="700" letter-spacing="5" text-anchor="end">RETRO KINETIC / 01</text>
</svg>
